<svg width="40" height="40" viewBox="0 0 40 40" fill="none" xmlns="http://www.w3.org/2000/svg">
<path d="M30 5C31.3261 5 32.5979 5.52678 33.5355 6.46447C34.4732 7.40215 35 8.67392 35 10V13.5717C35 14.1283 35 14.4067 34.8717 14.61C34.8052 14.7157 34.7157 14.8052 34.61 14.8717C34.4067 15 34.1283 15 33.5717 15H25M30 5C28.6739 5 27.4021 5.52678 26.4645 6.46447C25.5268 7.40215 25 8.67392 25 10V15M30 5H11.6667C8.52333 5 6.95333 5 5.97667 5.97667C5 6.95333 5 8.52333 5 11.6667V35L10 33.3333L15 35L20 33.3333L25 35V15" stroke="white" stroke-width="3.33333"/>
<path d="M11.6666 11.6667H18.3333M13.3333 18.3333H11.6666M11.6666 25H16.6666" stroke="white" stroke-width="3.33333" stroke-linecap="round"/>
</svg>
