<svg width="40" height="40" viewBox="0 0 40 40" fill="none" xmlns="http://www.w3.org/2000/svg">
<path d="M20 31.6667L13.3834 35.6333C12.8649 35.9448 12.2715 36.1094 11.6667 36.1094C11.0619 36.1094 10.4685 35.9448 9.95004 35.6333L4.95004 32.6333C4.45797 32.3377 4.05059 31.92 3.76735 31.4207C3.48412 30.9214 3.33463 30.3574 3.33337 29.7833V24.3833C3.33463 23.8093 3.48412 23.2453 3.76735 22.746C4.05059 22.2467 4.45797 21.829 4.95004 21.5333L11.6667 17.5L20 22.5M20 31.6667V22.5M20 31.6667L26.6167 35.6333C27.1351 35.9448 27.7286 36.1094 28.3334 36.1094C28.9382 36.1094 29.5316 35.9448 30.05 35.6333L35.05 32.6333C35.5421 32.3377 35.9495 31.92 36.2327 31.4207C36.516 30.9214 36.6654 30.3574 36.6667 29.7833V24.3833C36.6654 23.8093 36.516 23.2453 36.2327 22.746C35.9495 22.2467 35.5421 21.829 35.05 21.5333L28.3334 17.5L20 22.5M20 22.5L11.6667 27.5M20 22.5L28.3334 27.5M11.6667 27.5L3.76671 22.75M11.6667 27.5V36.1167M28.3334 27.5L36.2334 22.75M28.3334 27.5V36.1167" stroke="#A75F38" stroke-width="2" stroke-linecap="round" stroke-linejoin="round"/>
<path d="M20.0001 22.5L11.6667 17.5V10.2167C11.668 9.64261 11.8175 9.07862 12.1007 8.5793C12.384 8.07999 12.7913 7.6623 13.2834 7.36667L18.2834 4.36667C18.8019 4.05519 19.3953 3.89062 20.0001 3.89062C20.6049 3.89062 21.1983 4.05519 21.7167 4.36667L26.7167 7.36667C27.2088 7.6623 27.6162 8.07999 27.8994 8.5793C28.1827 9.07862 28.3322 9.64261 28.3334 10.2167V17.5L20.0001 22.5ZM20.0001 22.5V13.3333M20.0001 13.3333L12.1001 8.58332M20.0001 13.3333L27.9001 8.58332" stroke="#A75F38" stroke-width="2" stroke-linecap="round" stroke-linejoin="round"/>
</svg>
